<svg width="118" height="105" viewBox="0 0 118 105" fill="none" xmlns="http://www.w3.org/2000/svg">
<ellipse cx="58.5888" cy="52.5" rx="58.5888" ry="52.5" fill="#D9D9D9" fill-opacity="0.6"/>
<path d="M95.8095 87.9691C97.4715 89.6154 100.3 89.7345 101.978 88.1013C108.73 81.5315 113.563 73.4954 115.994 64.7309C118.425 55.9664 118.361 46.8053 115.844 38.1066C115.219 35.9444 112.667 34.8276 110.345 35.5594C108.023 36.2911 106.814 38.5943 107.407 40.7641C109.376 47.9636 109.373 55.5154 107.367 62.7495C105.361 69.9831 101.425 76.6318 95.938 82.119C94.2838 83.7724 94.1475 86.3223 95.8095 87.9691Z" fill="url(#paint0_linear_43_784)"/>
<path d="M89.9704 92.4097C91.3066 94.1779 90.8223 96.6108 88.7867 97.6951C80.0605 102.344 70.1375 104.87 59.9783 104.995C49.8194 105.12 39.8247 102.839 30.9637 98.4062C28.8969 97.3725 28.3402 94.9521 29.6238 93.1518C30.9074 91.3516 33.5446 90.8549 35.6253 91.8652C43.0576 95.4743 51.3935 97.3279 59.8629 97.224C68.3326 97.1195 76.6104 95.0619 83.9328 91.2711C85.9828 90.2102 88.6336 90.6416 89.9704 92.4097Z" fill="url(#paint1_linear_43_784)"/>
<path d="M7.81584 37.9474C5.61627 37.3095 3.23684 38.3785 2.68222 40.3787C0.289611 49.0077 0.446156 58.0648 3.17163 66.6595C5.89704 75.2537 11.0836 83.0453 18.191 89.2843C19.8386 90.7306 22.4942 90.533 23.9941 88.964C25.494 87.3956 25.2677 85.0514 23.6403 83.5874C17.7862 78.3202 13.5073 71.8024 11.2331 64.6314C8.95892 57.4599 8.77724 49.9115 10.6725 42.6946C11.1994 40.6883 10.0154 38.5852 7.81584 37.9474Z" fill="#C99CFF"/>
<path d="M107.521 31.3129C109.765 30.291 110.69 27.7969 109.396 25.8397C104.552 18.509 97.8272 12.328 89.7719 7.84145C80.4216 2.63339 69.6526 -0.082681 58.6899 0.00191764C47.7271 0.0865703 37.0104 2.96847 27.7582 8.32009C19.7875 12.9304 13.1792 19.2143 8.47227 26.6187C7.21554 28.5956 8.1862 31.0751 10.4495 32.0621C12.7127 33.0491 15.409 32.1675 16.6965 30.2071C20.6475 24.1912 26.0985 19.0799 32.6335 15.3C40.4505 10.7786 49.5047 8.34365 58.767 8.27216C68.0288 8.20068 77.1274 10.4954 85.0274 14.8956C91.6318 18.5741 97.1774 23.6005 101.24 29.5546C102.564 31.4948 105.276 32.3346 107.521 31.3129Z" fill="#0066FF"/>
<path d="M107.517 31.4801C109.765 30.4529 110.691 27.9454 109.395 25.9777C104.544 18.6078 97.8099 12.3939 89.7431 7.88334C80.3794 2.64746 69.5951 -0.0831227 58.6168 0.00192789C47.6384 0.0870327 36.9065 2.98433 27.641 8.36454C19.659 12.9995 13.0413 19.3169 8.32767 26.7609C7.06915 28.7484 8.0412 31.2411 10.3077 32.2334C12.5742 33.2256 15.2743 32.3394 16.5636 30.3685C20.5202 24.3204 25.979 19.1818 32.5233 15.3817C40.3514 10.8361 49.4186 8.38822 58.694 8.31636C67.9691 8.24449 77.0806 10.5515 84.9918 14.9752C91.6056 18.6733 97.1591 23.7266 101.227 29.7125C102.553 31.6631 105.27 32.5074 107.517 31.4801Z" fill="url(#paint2_linear_43_784)"/>
<defs>
<linearGradient id="paint0_linear_43_784" x1="97.2469" y1="90.3061" x2="115.392" y2="90.3061" gradientUnits="userSpaceOnUse">
<stop stop-color="#6461FF"/>
<stop offset="1" stop-color="#7FE0FF"/>
</linearGradient>
<linearGradient id="paint1_linear_43_784" x1="20.1299" y1="96.8806" x2="96.911" y2="96.8806" gradientUnits="userSpaceOnUse">
<stop stop-color="#AEA7FF"/>
<stop offset="1" stop-color="#1A5AFF"/>
</linearGradient>
<linearGradient id="paint2_linear_43_784" x1="129.869" y1="15.011" x2="2.16733" y2="15.011" gradientUnits="userSpaceOnUse">
<stop stop-color="#8AE3FF"/>
<stop offset="1" stop-color="#9C3AFF"/>
</linearGradient>
</defs>
</svg>
